<?xml version="1.0" standalone="no"?>
<!DOCTYPE svg PUBLIC "-//W3C//DTD SVG 20010904//EN"
 "http://www.w3.org/TR/2001/REC-SVG-20010904/DTD/svg10.dtd">
<svg version="1.0" xmlns="http://www.w3.org/2000/svg"
 width="1691.000000pt" height="1691.000000pt" viewBox="0 0 1691.000000 1691.000000"
 preserveAspectRatio="xMidYMid meet">
<metadata>
Created by potrace 1.14, written by Peter Selinger 2001-2017
</metadata>
<g transform="translate(0.000000,1691.000000) scale(0.100000,-0.100000)"
fill="#000000" stroke="none">
<path d="M1886 11205 c-52 -25 -105 -78 -133 -135 -16 -32 -18 -80 -20 -562
-1 -291 1 -528 4 -528 4 0 27 13 52 29 49 30 598 359 628 376 89 49 553 331
553 335 0 3 -30 23 -67 43 -38 20 -93 51 -123 68 -449 252 -666 368 -718 384
-59 17 -127 13 -176 -10z"/>
<path d="M5769 10716 c-2 -2 -31 -6 -64 -9 -233 -21 -487 -93 -705 -199 -186
-90 -326 -187 -477 -331 -108 -104 -177 -186 -256 -308 -55 -83 -157 -278
-157 -299 0 -18 -21 -11 -103 38 -45 26 -91 51 -101 55 -20 8 -47 -6 -95 -48
-22 -19 -249 -205 -411 -335 -55 -45 -273 -222 -325 -265 -37 -30 -391 -317
-479 -388 -22 -18 -67 -55 -100 -83 -34 -28 -106 -86 -161 -130 -55 -44 -111
-89 -125 -101 -24 -21 -323 -263 -410 -333 -123 -98 -277 -225 -295 -241 -19
-18 -19 -19 0 -15 11 2 67 7 125 11 58 4 121 9 140 10 36 3 132 11 255 21 39
3 90 7 115 9 25 2 88 7 140 11 52 3 98 8 103 11 12 7 8 -15 -6 -29 -7 -7 -122
-146 -257 -308 -134 -162 -247 -297 -250 -300 -3 -3 -39 -45 -80 -95 -41 -49
-82 -99 -92 -110 -215 -255 -637 -765 -633 -765 3 0 76 62 162 137 87 76 171
149 187 163 16 14 37 32 46 40 90 83 151 130 162 124 7 -4 10 -3 5 1 -9 11 21
45 36 41 7 -2 8 -1 4 2 -14 7 14 31 30 25 10 -4 14 -2 10 4 -7 11 26 46 36 38
4 -3 5 -2 3 1 -5 6 30 44 40 44 3 0 40 35 83 78 120 118 919 903 1073 1054
333 324 954 935 976 961 14 15 28 27 32 27 3 0 5 -75 4 -166 -1 -127 -5 -170
-15 -183 -24 -27 -184 -206 -189 -211 -5 -5 -159 -175 -225 -249 -16 -19 -35
-39 -40 -45 -6 -6 -50 -56 -100 -111 -49 -55 -94 -105 -100 -111 -5 -6 -39
-44 -75 -84 -36 -40 -70 -78 -76 -84 -5 -6 -34 -38 -64 -71 -29 -33 -88 -98
-130 -145 -42 -47 -123 -137 -180 -200 -57 -63 -119 -133 -139 -155 -20 -22
-77 -85 -126 -140 -49 -55 -92 -102 -95 -105 -3 -3 -41 -45 -85 -95 -44 -49
-89 -98 -99 -108 -34 -31 -12 -27 47 8 31 19 78 46 104 61 89 51 538 300 608
338 140 77 183 101 340 191 160 92 204 117 325 183 36 19 77 43 92 54 14 10
28 18 31 18 4 0 42 20 217 117 30 17 87 48 125 71 39 22 73 38 76 36 4 -2 15
-21 24 -41 10 -21 43 -74 73 -118 275 -399 689 -673 1187 -783 168 -38 264
-47 485 -47 212 0 277 6 445 40 563 115 989 435 1220 917 45 95 83 192 100
258 51 192 53 200 62 277 l6 51 -488 -1 -488 -2 -22 -65 c-90 -266 -285 -448
-553 -515 -103 -26 -116 -27 -262 -30 -156 -4 -241 10 -365 56 -150 56 -292
159 -390 284 -22 27 -44 55 -50 61 -17 18 -90 162 -85 167 3 2 95 55 205 117
275 156 372 217 427 268 45 42 72 97 63 125 -2 7 -6 26 -8 43 -16 113 -157
241 -412 374 -76 40 -245 143 -245 150 0 14 99 146 146 196 102 105 223 179
363 224 133 41 194 49 361 45 150 -3 174 -6 275 -32 225 -56 400 -204 496
-420 17 -38 34 -75 38 -83 7 -13 73 -15 495 -15 558 0 497 -14 471 110 -69
330 -204 593 -426 826 -148 155 -343 283 -601 394 -103 44 -336 105 -457 120
-30 4 -63 9 -75 12 -25 6 -421 14 -427 9z"/>
<path d="M8069 10692 l-26 -3 0 -1945 c0 -1770 2 -1946 16 -1952 20 -9 989 -8
998 1 3 4 6 407 6 897 l0 890 69 -72 c334 -348 595 -622 675 -707 l79 -83 60
-3 59 -2 50 52 c239 251 388 407 486 509 64 67 155 162 202 211 l86 90 1 -35
c0 -19 1 -421 1 -892 0 -656 3 -858 12 -859 63 -4 991 -3 999 2 6 4 10 692 11
1953 2 1723 0 1946 -13 1947 -8 1 -91 1 -185 1 -163 0 -170 -1 -187 -22 -10
-13 -62 -70 -116 -128 -53 -58 -101 -110 -107 -116 -145 -160 -201 -222 -205
-226 -3 -3 -53 -57 -110 -120 -58 -63 -128 -140 -156 -170 -28 -30 -71 -77
-95 -104 -24 -27 -55 -61 -69 -76 -33 -35 -201 -218 -220 -240 -8 -9 -55 -61
-105 -115 -49 -54 -101 -110 -113 -124 -13 -14 -63 -68 -110 -120 -48 -52 -92
-100 -97 -108 -11 -15 -19 -6 -280 277 -33 36 -62 67 -65 70 -3 3 -30 32 -60
65 -84 92 -258 282 -325 355 -97 105 -132 143 -155 170 -11 13 -47 51 -78 85
-31 33 -95 103 -142 155 -47 51 -92 101 -101 109 -9 9 -67 72 -130 141 -62 69
-118 130 -124 136 -5 6 -30 32 -53 58 l-44 48 -156 1 c-87 1 -169 1 -183 -1z"/>
<path d="M12359 10676 c-1 -15 -1 -3812 0 -3852 l1 -31 508 1 507 1 0 497 c0
273 3 499 6 502 3 3 192 6 420 7 419 1 495 5 644 39 82 19 173 53 281 105 348
169 597 487 698 895 14 58 28 130 32 160 3 30 7 66 10 80 5 34 5 286 -1 330
-2 19 -7 58 -11 85 -26 203 -116 442 -235 619 -53 79 -211 248 -284 302 -95
71 -295 180 -322 175 -2 0 -22 8 -45 18 -53 22 -171 49 -292 66 -124 17 -1916
18 -1917 1z m1844 -899 c50 -17 76 -36 133 -92 57 -57 76 -84 102 -147 50
-120 71 -295 49 -408 -27 -136 -74 -242 -141 -317 -46 -51 -135 -105 -196
-119 -19 -4 -205 -8 -412 -8 l-378 -1 0 558 0 557 390 0 c375 -1 393 -2 453
-23z"/>
<path d="M2735 10423 c-77 -52 -243 -165 -370 -251 -126 -85 -277 -188 -335
-227 -361 -246 -479 -323 -780 -511 -184 -114 -351 -219 -370 -232 -40 -27
-46 -27 100 7 47 11 137 32 200 46 63 15 151 35 195 45 44 11 199 47 345 80
146 33 280 64 298 69 17 5 32 7 32 5 0 -4 -259 -335 -269 -344 -3 -3 -28 -34
-56 -70 -27 -36 -52 -67 -55 -70 -3 -3 -20 -25 -39 -50 -34 -44 -30 -42 34 13
17 14 113 96 215 182 202 172 269 229 340 290 25 22 70 61 100 86 163 139 308
262 425 363 44 38 91 78 105 90 299 254 419 360 415 367 -3 4 -51 33 -108 63
-94 52 -136 75 -225 127 -18 10 -39 19 -45 19 -7 -1 -75 -44 -152 -97z"/>
<path d="M3344 10094 c-203 -150 -373 -277 -379 -281 -5 -5 -86 -65 -180 -134
-214 -158 -555 -411 -747 -554 -133 -98 -148 -112 -149 -140 -1 -35 0 -507 0
-547 1 -34 8 -35 43 -5 30 24 29 23 238 171 190 134 860 609 905 642 32 23
159 113 175 124 8 6 123 87 255 181 366 260 591 420 657 465 33 23 64 46 69
51 8 8 -158 108 -341 207 -19 10 -60 33 -90 50 -30 18 -62 35 -71 38 -10 4
-143 -89 -385 -268z"/>
<path d="M15103 5833 c-46 -11 -69 -23 -101 -54 -67 -64 -77 -90 -77 -199 0
-81 4 -101 23 -133 48 -82 111 -118 212 -123 90 -4 156 21 206 79 92 104 82
286 -22 376 -65 58 -144 75 -241 54z m154 -44 c18 -6 48 -25 66 -43 96 -93 85
-272 -21 -347 -129 -92 -302 -27 -337 125 -7 28 -11 60 -9 71 9 64 17 87 44
123 57 79 152 105 257 71z"/>
<path d="M3426 5830 c-79 -24 -141 -94 -161 -183 -45 -202 124 -370 315 -314
61 18 118 63 145 115 16 33 16 34 -6 30 -12 -2 -27 -12 -33 -23 -34 -62 -139
-109 -210 -93 -78 16 -135 60 -161 123 -33 81 -16 195 38 253 44 47 85 65 152
65 51 0 72 -5 110 -28 26 -15 55 -40 64 -56 17 -31 51 -40 51 -14 0 27 -92
110 -136 123 -47 14 -125 14 -168 2z"/>
<path d="M3986 5830 c-2 -3 -3 -116 -3 -252 -1 -246 -1 -248 21 -249 11 0 77
-1 146 -1 108 0 125 2 128 16 4 18 -3 18 -165 17 l-93 -1 0 105 0 105 28 1
c15 1 65 1 112 1 47 -1 91 3 99 7 32 20 -4 29 -116 28 l-118 0 -3 96 -3 97
130 0 c117 0 129 2 127 18 -3 15 -17 17 -145 17 -79 0 -144 -2 -145 -5z"/>
<path d="M4539 5813 c-1 -38 -1 -431 0 -465 1 -20 5 -25 19 -21 17 4 18 20 17
213 l-2 208 51 -62 c28 -33 53 -63 56 -66 3 -3 21 -25 40 -50 19 -25 39 -50
45 -56 6 -6 33 -39 60 -73 83 -103 94 -115 100 -109 5 5 9 356 6 485 -1 14 -7
20 -18 19 -17 -3 -18 -20 -18 -210 1 -113 0 -206 -1 -206 -1 0 -48 57 -105
128 -57 70 -106 129 -109 132 -3 3 -32 37 -63 77 -69 87 -77 93 -78 56z"/>
<path d="M5155 5832 c-2 -2 -1 -10 2 -18 4 -10 26 -14 84 -14 43 0 80 -3 80
-7 1 -5 2 -110 3 -235 1 -124 4 -229 6 -232 3 -3 12 -1 19 4 11 6 14 53 14
239 l0 231 84 0 c73 0 83 2 83 18 0 16 -14 17 -186 17 -102 0 -187 -2 -189 -3z"/>
<path d="M5762 5826 c-4 -6 -7 -120 -7 -253 0 -238 0 -243 20 -243 19 0 20 6
20 93 l0 92 75 3 75 3 75 -96 c55 -69 81 -95 98 -95 12 0 22 3 22 6 0 3 -34
45 -75 93 -41 49 -75 91 -75 94 0 3 13 8 28 12 16 3 44 22 63 41 31 32 34 40
34 99 0 72 -18 106 -75 139 -26 16 -54 19 -152 21 -75 1 -122 -3 -126 -9z
m254 -42 c97 -46 83 -188 -21 -221 -24 -7 -161 -10 -197 -4 -4 0 -7 55 -6 121
l1 120 95 0 c66 0 104 -5 128 -16z"/>
<path d="M6488 5816 c-90 -44 -133 -116 -137 -233 -4 -102 45 -189 134 -236
31 -17 57 -22 120 -22 89 0 138 19 186 72 52 55 64 91 64 188 0 85 -2 93 -34
141 -55 84 -116 114 -226 114 -42 -1 -74 -8 -107 -24z m230 -42 c117 -69 138
-261 38 -356 -83 -79 -223 -80 -301 -2 -79 79 -87 218 -18 312 59 79 188 100
281 46z"/>
<path d="M7449 5821 c0 -22 0 -451 0 -476 1 -19 7 -20 118 -18 103 2 123 5
170 28 62 31 99 75 119 141 39 130 -12 261 -122 315 -40 19 -65 22 -165 24
-102 1 -119 -1 -120 -14z m248 -35 c75 -26 128 -105 132 -197 4 -94 -47 -179
-128 -211 -35 -14 -211 -17 -211 -4 -1 17 -1 274 -1 354 l1 73 88 -2 c48 -1
101 -7 119 -13z"/>
<path d="M8125 5830 c-1 -3 -3 -116 -2 -252 l0 -248 31 -1 c36 -1 198 -1 239
0 17 1 27 6 27 16 0 17 -6 17 -157 16 l-103 -1 0 105 c0 93 2 105 18 106 9 0
64 1 122 2 86 2 105 5 105 17 0 13 -20 15 -123 15 l-122 0 0 98 0 97 131 0
c119 0 130 2 127 18 -3 15 -18 17 -146 17 -79 0 -145 -2 -147 -5z"/>
<path d="M8940 5832 c-5 -2 -10 -10 -10 -18 0 -11 18 -14 83 -14 l84 0 -1
-235 c-1 -234 -1 -235 21 -235 21 0 21 2 21 213 0 116 1 222 1 235 1 21 5 22
80 22 77 0 105 10 79 27 -12 7 -336 12 -358 5z"/>
<path d="M9530 5582 c0 -236 1 -253 18 -250 17 3 17 2 21 166 1 21 5 22 75 22
l74 0 77 -95 c59 -73 82 -95 101 -95 22 0 17 8 -51 92 -41 51 -75 95 -75 98 1
3 20 14 43 25 62 30 85 80 79 172 -2 28 -46 79 -86 100 -23 12 -62 17 -153 18
l-123 1 0 -254z m268 198 c81 -50 75 -176 -10 -211 -17 -7 -73 -13 -124 -14
-84 -1 -94 1 -95 17 0 10 0 47 0 83 0 36 0 83 0 105 l1 40 98 0 c80 0 103 -4
130 -20z"/>
<path d="M10161 5830 c-4 -3 -7 -116 -6 -252 l0 -248 35 -1 c41 -1 241 -1 253
0 4 1 7 9 7 19 0 15 -13 17 -127 17 l-128 0 -2 103 -2 102 42 1 c180 2 202 4
202 19 0 12 -19 15 -105 16 -58 1 -113 2 -122 3 -15 1 -17 14 -16 96 l0 95
129 0 c117 0 129 2 129 18 0 16 -13 17 -141 17 -77 0 -144 -2 -148 -5z"/>
<path d="M10670 5818 c0 -15 8 -18 43 -18 l44 0 -1 -217 -1 -218 -48 -3 c-38
-2 -48 -7 -45 -19 2 -13 19 -16 101 -15 132 1 127 0 127 16 0 11 -14 16 -47
18 l-48 3 0 215 0 215 42 3 c24 2 44 9 47 18 7 17 13 16 -111 18 -93 2 -103 0
-103 -16z"/>
<path d="M11130 5581 c0 -253 0 -259 20 -254 18 5 19 14 17 209 -1 112 0 204
3 204 3 -1 22 -22 42 -48 21 -26 48 -59 60 -73 13 -15 70 -86 128 -157 58 -72
110 -130 115 -128 9 2 16 465 7 493 -2 6 -11 10 -20 9 -15 -3 -17 -23 -16
-211 l1 -209 -20 24 c-11 14 -65 81 -121 150 -55 69 -111 136 -123 150 -13 14
-34 40 -46 57 -46 67 -47 61 -47 -216z"/>
<path d="M11953 5772 c-17 -37 -45 -96 -61 -132 -16 -36 -55 -118 -86 -184
-31 -65 -56 -120 -56 -122 0 -2 11 -4 25 -4 14 0 25 4 25 9 0 5 12 36 28 70
31 69 14 63 186 63 124 0 118 3 158 -87 18 -43 28 -55 46 -55 27 0 26 -3 3 46
-31 63 -100 212 -147 314 -57 125 -67 143 -79 146 -5 2 -24 -27 -42 -64z m83
-89 c20 -43 46 -100 59 -128 l23 -50 -122 1 c-66 1 -120 6 -119 11 1 5 20 48
42 95 23 48 41 89 41 93 0 8 31 55 36 55 3 0 21 -35 40 -77z"/>
<path d="M12468 5827 c-2 -6 -4 -120 -4 -252 1 -232 2 -240 21 -243 19 -3 20
2 18 205 -1 156 1 203 9 188 6 -11 14 -22 17 -25 3 -3 26 -34 50 -70 25 -36
60 -87 79 -113 l34 -48 74 107 c40 59 80 114 89 124 8 9 12 20 8 23 -3 4 -1 7
5 7 7 0 10 -62 9 -200 -2 -198 -2 -200 19 -200 21 0 21 2 21 243 0 133 -3 248
-7 256 -5 10 -22 -8 -58 -60 -56 -84 -119 -174 -144 -209 l-17 -23 -20 24
c-11 13 -20 29 -21 35 0 6 -6 16 -13 22 -7 6 -44 57 -81 112 -74 108 -82 117
-88 97z"/>
<path d="M13205 5830 c-1 -3 -2 -116 -2 -252 0 -219 2 -248 16 -249 9 0 74 -1
146 -2 114 -1 130 1 133 16 4 19 11 18 -153 20 l-100 2 -3 103 c-1 56 1 102 5
103 4 0 60 1 123 2 95 2 115 5 115 17 0 13 -20 15 -123 15 l-122 0 0 98 0 97
129 0 c117 0 129 2 127 18 -3 15 -17 17 -145 17 -79 0 -144 -2 -146 -5z"/>
<path d="M13759 5823 c-1 -22 -1 -473 0 -491 1 -9 6 -10 19 -3 16 9 18 27 17
210 -1 111 1 201 4 200 3 0 33 -34 66 -76 33 -42 65 -81 70 -87 6 -6 53 -64
105 -128 52 -65 98 -118 102 -118 4 0 8 42 9 93 1 216 -1 410 -4 414 -2 2 -12
1 -21 -3 -14 -5 -16 -29 -13 -211 l3 -204 -26 29 c-14 17 -32 38 -40 49 -161
197 -282 343 -285 343 -3 0 -5 -8 -6 -17z"/>
<path d="M14376 5818 c-4 -16 5 -18 79 -18 57 0 84 -4 87 -12 2 -7 4 -113 4
-235 -1 -206 0 -223 16 -223 21 0 20 -17 20 258 l0 212 84 0 c74 0 84 2 84 18
0 16 -15 17 -184 17 -168 0 -185 -2 -190 -17z"/>
</g>
</svg>
